<?xml version="1.0" standalone="no"?>
<!DOCTYPE svg PUBLIC "-//W3C//DTD SVG 20010904//EN"
 "http://www.w3.org/TR/2001/REC-SVG-20010904/DTD/svg10.dtd">
<svg version="1.0" xmlns="http://www.w3.org/2000/svg"
 width="260.000000pt" height="260.000000pt" viewBox="0 0 260.000000 260.000000"
 preserveAspectRatio="xMidYMid meet">
<metadata>
Created by potrace 1.14, written by Peter Selinger 2001-2017
</metadata>
<g transform="translate(0.000000,260.000000) scale(0.100000,-0.100000)"
fill="#000000" stroke="none">
<path d="M1922 2238 c-42 -29 -80 -107 -88 -181 l-7 -59 28 4 c24 3 30 10 42
50 10 35 21 52 43 63 39 20 56 19 96 -5 36 -23 67 -89 79 -171 6 -43 0 -59
-159 -393 -91 -192 -166 -350 -166 -352 0 -2 35 -4 78 -4 l77 1 110 245 c61
135 113 247 116 249 3 2 20 -64 38 -148 56 -264 89 -334 171 -358 101 -30 190
65 190 204 0 47 -1 48 -27 45 -22 -2 -29 -10 -34 -36 -9 -47 -45 -82 -84 -82
-71 0 -95 47 -154 305 -101 437 -114 488 -143 546 -19 38 -42 68 -62 80 -43
26 -103 25 -144 -3z"/>
<path d="M1007 1488 c-3 -351 -6 -410 -21 -456 -22 -64 -15 -114 19 -148 32
-32 60 -30 96 5 34 35 37 66 14 184 -8 43 -15 90 -15 103 0 24 0 24 32 8 78
-40 196 -9 280 73 l46 46 11 -40 c20 -72 92 -112 166 -92 49 14 81 47 99 102
24 72 21 97 -9 97 -14 0 -27 -6 -29 -12 -17 -64 -22 -73 -46 -73 -17 0 -26 7
-31 25 -4 14 -7 150 -8 303 l-1 277 -75 0 -75 0 0 -255 0 -256 -25 -24 c-57
-52 -151 -77 -206 -55 -54 23 -59 50 -59 335 l0 255 -79 0 -80 0 -4 -402z"/>
<path d="M378 1469 c-118 -13 -228 -76 -276 -158 -22 -38 -27 -58 -27 -113 0
-90 34 -139 125 -185 l64 -32 -30 -11 c-101 -39 -171 -96 -200 -166 -37 -87
-2 -209 79 -280 164 -142 506 -139 672 7 45 40 65 78 65 124 0 74 -49 125
-121 125 -61 0 -92 -28 -125 -110 -15 -39 -38 -82 -52 -95 -73 -74 -213 -48
-264 49 -25 50 -34 132 -18 180 18 55 65 104 112 116 23 7 77 9 131 5 67 -4
99 -2 117 7 33 18 38 58 9 84 -19 17 -34 19 -150 16 l-128 -3 -36 33 c-43 39
-59 101 -46 174 17 91 75 134 179 134 56 0 67 -3 90 -28 15 -15 39 -49 54 -74
32 -55 65 -80 112 -81 44 -1 84 26 102 69 13 30 12 39 -1 71 -19 44 -49 79
-85 98 -72 37 -235 58 -352 44z"/>
</g>
</svg>
